<mxfile host="65bd71144e">
    <diagram id="ymIxKSZ2xmaN8qwwOqHS" name="Página-1">
        <mxGraphModel dx="877" dy="639" grid="1" gridSize="10" guides="1" tooltips="1" connect="1" arrows="1" fold="1" page="1" pageScale="1" pageWidth="827" pageHeight="1169" math="0" shadow="0">
            <root>
                <mxCell id="0"/>
                <mxCell id="1" parent="0"/>
                <mxCell id="2" value="&lt;div&gt;&lt;span style=&quot;background-color: initial;&quot;&gt;- MAIS INFORMAÇÕES DA EMPRESA COM YFINANCE&lt;/span&gt;&lt;/div&gt;&lt;div&gt;&lt;span style=&quot;background-color: initial;&quot;&gt;&lt;br&gt;&lt;/span&gt;&lt;/div&gt;&lt;div&gt;&lt;span style=&quot;background-color: initial;&quot;&gt;- PLOTAR GRÁFICO COMPARATIVO (OPÇÃO DE OUTRA AÇÃO E ÍNDICES IBOVESPA)&lt;/span&gt;&lt;br&gt;&lt;/div&gt;&lt;div&gt;&lt;span style=&quot;background-color: initial;&quot;&gt;&lt;br&gt;&lt;/span&gt;&lt;/div&gt;&lt;div&gt;- ESCOLHA DE NÍVEL DE PLOTAGEM&lt;/div&gt;&lt;div&gt;&lt;br&gt;&lt;/div&gt;&lt;div&gt;&lt;span style=&quot;background-color: initial;&quot;&gt;- VISUALIZAÇÃO EM PORTUGUÊS&lt;/span&gt;&lt;/div&gt;&lt;div&gt;&lt;span style=&quot;background-color: initial;&quot;&gt;&lt;br&gt;&lt;/span&gt;&lt;/div&gt;&lt;div&gt;- GETTER E SETTER PARA TICKERS&lt;/div&gt;&lt;div&gt;&lt;br&gt;&lt;/div&gt;&lt;div&gt;- QUIZ COM PERFIL DE INVESTIMENTO E&amp;nbsp;&lt;/div&gt;&lt;div&gt;RECOMENDAÇÃO DE DIVISÃO DE CARTEIRA&lt;/div&gt;" style="whiteSpace=wrap;html=1;" parent="1" vertex="1">
                    <mxGeometry x="190" width="500" height="320" as="geometry"/>
                </mxCell>
                <mxCell id="3" value="- CALCULADORA MÃE PARA CALCULADORA &lt;br&gt;DE JUROS COMPOSTOS&lt;br&gt;&lt;br&gt;- CRIAR CLASSE DE PLOTAGEM DE GRÁFICO, COM MÉTODO ABSTRATO. CLASSE FILHA DE PLOTAGEM DE AÇÕES E CRIPTO." style="whiteSpace=wrap;html=1;" parent="1" vertex="1">
                    <mxGeometry x="240" y="350" width="400" height="160" as="geometry"/>
                </mxCell>
                <mxCell id="4" value="HERANÇA E ABCLASS" style="text;strokeColor=none;align=center;fillColor=none;html=1;verticalAlign=middle;whiteSpace=wrap;rounded=0;" parent="1" vertex="1">
                    <mxGeometry x="325" y="310" width="230" height="120" as="geometry"/>
                </mxCell>
            </root>
        </mxGraphModel>
    </diagram>
</mxfile>